<svg xmlns="http://www.w3.org/2000/svg" viewBox="0 0 1302 270" width="1302" height="270" role="img" aria-label="Omashift">
  <title>Omashift</title>
  <g fill="#F3F19A">
    <rect x="38.6" y="14.6" width="96.8" height="24.8"/>
    <rect x="14.6" y="38.6" width="144.8" height="24.8"/>
    <rect x="14.6" y="62.6" width="48.8" height="24.8"/>
    <rect x="110.6" y="62.6" width="48.8" height="24.8"/>
    <rect x="14.6" y="86.6" width="48.8" height="24.8"/>
    <rect x="110.6" y="86.6" width="48.8" height="24.8"/>
    <rect x="14.6" y="110.6" width="48.8" height="24.8"/>
    <rect x="110.6" y="110.6" width="48.8" height="24.8"/>
    <rect x="14.6" y="134.6" width="48.8" height="24.8"/>
    <rect x="110.6" y="134.6" width="48.8" height="24.8"/>
    <rect x="14.6" y="158.6" width="48.8" height="24.8"/>
    <rect x="110.6" y="158.6" width="48.8" height="24.8"/>
    <rect x="14.6" y="182.6" width="48.8" height="24.8"/>
    <rect x="110.6" y="182.6" width="48.8" height="24.8"/>
    <rect x="14.6" y="206.6" width="144.8" height="24.8"/>
    <rect x="38.6" y="230.6" width="96.8" height="24.8"/>
    <rect x="206.6" y="14.6" width="144.8" height="24.8"/>
    <rect x="182.6" y="38.6" width="192.8" height="24.8"/>
    <rect x="182.6" y="62.6" width="48.8" height="24.8"/>
    <rect x="254.6" y="62.6" width="48.8" height="24.8"/>
    <rect x="326.6" y="62.6" width="48.8" height="24.8"/>
    <rect x="182.6" y="86.6" width="48.8" height="24.8"/>
    <rect x="254.6" y="86.6" width="48.8" height="24.8"/>
    <rect x="326.6" y="86.6" width="48.8" height="24.8"/>
    <rect x="182.6" y="110.6" width="48.8" height="24.8"/>
    <rect x="254.6" y="110.6" width="48.8" height="24.8"/>
    <rect x="326.6" y="110.6" width="48.8" height="24.8"/>
    <rect x="182.6" y="134.6" width="48.8" height="24.8"/>
    <rect x="254.6" y="134.6" width="48.8" height="24.8"/>
    <rect x="326.6" y="134.6" width="48.8" height="24.8"/>
    <rect x="182.6" y="158.6" width="48.8" height="24.8"/>
    <rect x="254.6" y="158.6" width="48.8" height="24.8"/>
    <rect x="326.6" y="158.6" width="48.8" height="24.8"/>
    <rect x="182.6" y="182.6" width="48.8" height="24.8"/>
    <rect x="254.6" y="182.6" width="48.8" height="24.8"/>
    <rect x="326.6" y="182.6" width="48.8" height="24.8"/>
    <rect x="182.6" y="206.6" width="48.8" height="24.8"/>
    <rect x="254.6" y="206.6" width="48.8" height="24.8"/>
    <rect x="326.6" y="206.6" width="48.8" height="24.8"/>
    <rect x="182.6" y="230.6" width="48.8" height="24.8"/>
    <rect x="254.6" y="230.6" width="48.8" height="24.8"/>
    <rect x="326.6" y="230.6" width="48.8" height="24.8"/>
    <rect x="422.6" y="14.6" width="96.8" height="24.8"/>
    <rect x="398.6" y="38.6" width="144.8" height="24.8"/>
    <rect x="398.6" y="62.6" width="48.8" height="24.8"/>
    <rect x="494.6" y="62.6" width="48.8" height="24.8"/>
    <rect x="398.6" y="86.6" width="48.8" height="24.8"/>
    <rect x="494.6" y="86.6" width="48.8" height="24.8"/>
    <rect x="398.6" y="110.6" width="144.8" height="24.8"/>
    <rect x="398.6" y="134.6" width="144.8" height="24.8"/>
    <rect x="398.6" y="158.6" width="48.8" height="24.8"/>
    <rect x="494.6" y="158.6" width="48.8" height="24.8"/>
    <rect x="398.6" y="182.6" width="48.8" height="24.8"/>
    <rect x="494.6" y="182.6" width="48.8" height="24.8"/>
    <rect x="398.6" y="206.6" width="48.8" height="24.8"/>
    <rect x="494.6" y="206.6" width="48.8" height="24.8"/>
    <rect x="398.6" y="230.6" width="48.8" height="24.8"/>
    <rect x="494.6" y="230.6" width="48.8" height="24.8"/>
    <rect x="590.6" y="14.6" width="96.8" height="24.8"/>
    <rect x="566.6" y="38.6" width="144.8" height="24.8"/>
    <rect x="566.6" y="62.6" width="48.8" height="24.8"/>
    <rect x="566.6" y="86.6" width="48.8" height="24.8"/>
    <rect x="566.6" y="110.6" width="144.8" height="24.8"/>
    <rect x="566.6" y="134.6" width="144.8" height="24.8"/>
    <rect x="662.6" y="158.6" width="48.8" height="24.8"/>
    <rect x="662.6" y="182.6" width="48.8" height="24.8"/>
    <rect x="566.6" y="206.6" width="144.8" height="24.8"/>
    <rect x="590.6" y="230.6" width="96.8" height="24.8"/>
    <rect x="734.6" y="14.6" width="48.8" height="12.8"/>
    <rect x="830.6" y="14.6" width="48.8" height="12.8"/>
    <rect x="734.6" y="26.6" width="48.8" height="12.8"/>
    <rect x="830.6" y="26.6" width="48.8" height="12.8"/>
    <rect x="734.6" y="38.6" width="12.8" height="12.8"/>
    <rect x="770.6" y="38.6" width="12.8" height="12.8"/>
    <rect x="830.6" y="38.6" width="12.8" height="12.8"/>
    <rect x="866.6" y="38.6" width="12.8" height="12.8"/>
    <rect x="734.6" y="50.6" width="12.8" height="12.8"/>
    <rect x="770.6" y="50.6" width="12.8" height="12.8"/>
    <rect x="830.6" y="50.6" width="12.8" height="12.8"/>
    <rect x="866.6" y="50.6" width="12.8" height="12.8"/>
    <rect x="734.6" y="62.6" width="12.8" height="12.8"/>
    <rect x="770.6" y="62.6" width="12.8" height="12.8"/>
    <rect x="830.6" y="62.6" width="12.8" height="12.8"/>
    <rect x="866.6" y="62.6" width="12.8" height="12.8"/>
    <rect x="734.6" y="74.6" width="12.8" height="12.8"/>
    <rect x="770.6" y="74.6" width="12.8" height="12.8"/>
    <rect x="830.6" y="74.6" width="12.8" height="12.8"/>
    <rect x="866.6" y="74.6" width="12.8" height="12.8"/>
    <rect x="734.6" y="86.6" width="12.8" height="12.8"/>
    <rect x="770.6" y="86.6" width="12.8" height="12.8"/>
    <rect x="830.6" y="86.6" width="12.8" height="12.8"/>
    <rect x="866.6" y="86.6" width="12.8" height="12.8"/>
    <rect x="734.6" y="98.6" width="12.8" height="12.8"/>
    <rect x="770.6" y="98.6" width="12.8" height="12.8"/>
    <rect x="830.6" y="98.6" width="12.8" height="12.8"/>
    <rect x="866.6" y="98.6" width="12.8" height="12.8"/>
    <rect x="734.6" y="110.6" width="12.8" height="12.8"/>
    <rect x="770.6" y="110.6" width="72.8" height="12.8"/>
    <rect x="866.6" y="110.6" width="12.8" height="12.8"/>
    <rect x="734.6" y="122.6" width="12.8" height="12.8"/>
    <rect x="866.6" y="122.6" width="12.8" height="12.8"/>
    <rect x="734.6" y="134.6" width="12.8" height="12.8"/>
    <rect x="866.6" y="134.6" width="12.8" height="12.8"/>
    <rect x="734.6" y="146.6" width="12.8" height="12.8"/>
    <rect x="770.6" y="146.6" width="72.8" height="12.8"/>
    <rect x="866.6" y="146.6" width="12.8" height="12.8"/>
    <rect x="734.6" y="158.6" width="12.8" height="12.8"/>
    <rect x="770.6" y="158.6" width="12.8" height="12.8"/>
    <rect x="830.6" y="158.6" width="12.8" height="12.8"/>
    <rect x="866.6" y="158.6" width="12.8" height="12.8"/>
    <rect x="734.6" y="170.6" width="12.8" height="12.8"/>
    <rect x="770.6" y="170.6" width="12.8" height="12.8"/>
    <rect x="830.6" y="170.6" width="12.8" height="12.8"/>
    <rect x="866.6" y="170.6" width="12.8" height="12.8"/>
    <rect x="734.6" y="182.6" width="12.8" height="12.8"/>
    <rect x="770.6" y="182.6" width="12.8" height="12.8"/>
    <rect x="830.6" y="182.6" width="12.8" height="12.8"/>
    <rect x="866.6" y="182.6" width="12.8" height="12.8"/>
    <rect x="734.6" y="194.6" width="12.8" height="12.8"/>
    <rect x="770.6" y="194.6" width="12.8" height="12.8"/>
    <rect x="830.6" y="194.6" width="12.8" height="12.8"/>
    <rect x="866.6" y="194.6" width="12.8" height="12.8"/>
    <rect x="734.6" y="206.6" width="12.8" height="12.8"/>
    <rect x="770.6" y="206.6" width="12.8" height="12.8"/>
    <rect x="830.6" y="206.6" width="12.8" height="12.8"/>
    <rect x="866.6" y="206.6" width="12.8" height="12.8"/>
    <rect x="734.6" y="218.6" width="12.8" height="12.8"/>
    <rect x="770.6" y="218.6" width="12.8" height="12.8"/>
    <rect x="830.6" y="218.6" width="12.8" height="12.8"/>
    <rect x="866.6" y="218.6" width="12.8" height="12.8"/>
    <rect x="734.6" y="230.6" width="48.8" height="12.8"/>
    <rect x="830.6" y="230.6" width="48.8" height="12.8"/>
    <rect x="734.6" y="242.6" width="48.8" height="12.8"/>
    <rect x="830.6" y="242.6" width="48.8" height="12.8"/>
    <circle cx="759" cy="135" r="16.8" fill="#F3F19A"/>
    <rect x="902.6" y="14.6" width="48.8" height="24.8"/>
    <rect x="902.6" y="38.6" width="48.8" height="24.8"/>
    <rect x="902.6" y="62.6" width="48.8" height="24.8"/>
    <rect x="902.6" y="86.6" width="48.8" height="24.8"/>
    <rect x="902.6" y="110.6" width="48.8" height="24.8"/>
    <rect x="902.6" y="134.6" width="48.8" height="24.8"/>
    <rect x="902.6" y="158.6" width="48.8" height="24.8"/>
    <rect x="902.6" y="182.6" width="48.8" height="24.8"/>
    <rect x="902.6" y="206.6" width="48.8" height="24.8"/>
    <rect x="902.6" y="230.6" width="48.8" height="24.8"/>
    <rect x="998.6" y="14.6" width="96.8" height="24.8"/>
    <rect x="974.6" y="38.6" width="144.8" height="24.8"/>
    <rect x="974.6" y="62.6" width="48.8" height="24.8"/>
    <rect x="974.6" y="86.6" width="48.8" height="24.8"/>
    <rect x="974.6" y="110.6" width="120.8" height="24.8"/>
    <rect x="974.6" y="134.6" width="120.8" height="24.8"/>
    <rect x="974.6" y="158.6" width="48.8" height="24.8"/>
    <rect x="974.6" y="182.6" width="48.8" height="24.8"/>
    <rect x="974.6" y="206.6" width="48.8" height="24.8"/>
    <rect x="974.6" y="230.6" width="48.8" height="24.8"/>
    <rect x="1166.6" y="14.6" width="96.8" height="24.8"/>
    <rect x="1142.6" y="38.6" width="144.8" height="24.8"/>
    <rect x="1190.6" y="62.6" width="48.8" height="24.8"/>
    <rect x="1190.6" y="86.6" width="48.8" height="24.8"/>
    <rect x="1190.6" y="110.6" width="48.8" height="24.8"/>
    <rect x="1190.6" y="134.6" width="48.8" height="24.8"/>
    <rect x="1190.6" y="158.6" width="48.8" height="24.8"/>
    <rect x="1190.6" y="182.6" width="48.8" height="24.8"/>
    <rect x="1190.6" y="206.6" width="48.8" height="24.8"/>
    <rect x="1190.6" y="230.6" width="48.8" height="24.8"/>
  </g>
</svg>
